<svg width="550.557" height="80.001" viewBox="0 0 550.557 80.001" xmlns="http://www.w3.org/2000/svg"><g id="svgGroup" stroke-linecap="round" fill-rule="nonzero" font-size="9pt" stroke="#203b84" stroke-width="0.25mm" fill="#4e84f5" style="stroke:#203b84;stroke-width:0.25mm;fill:#4e84f5"><path d="M 50.001 27.778 L 50.001 22.917 L 56.32 22.917 L 56.32 49.444 Q 56.32 52.5 58.057 54.028 Q 59.793 55.556 62.015 55.556 Q 63.82 55.556 65.418 54.479 Q 67.015 53.403 68.23 51.319 Q 69.445 49.236 70.14 46.215 Q 70.834 43.194 70.834 39.236 Q 70.834 32.847 68.473 27.431 Q 66.112 22.014 61.911 18.021 Q 57.709 14.028 52.084 11.806 Q 46.459 9.583 39.862 9.583 Q 32.779 9.583 26.737 12.083 Q 20.695 14.583 16.182 19.028 Q 11.668 23.472 9.168 29.306 Q 6.668 35.139 6.668 41.875 Q 6.668 48.611 9.168 54.41 Q 11.668 60.208 16.182 64.549 Q 20.695 68.889 26.702 71.319 Q 32.709 73.75 39.654 73.75 Q 45.834 73.75 51.251 71.701 Q 56.668 69.653 61.112 65.694 L 62.918 72.639 Q 58.057 76.181 52.154 78.09 Q 46.251 80 39.793 80 Q 31.459 80 24.237 77.083 Q 17.015 74.167 11.564 68.958 Q 6.112 63.75 3.057 56.875 Q 0.001 50 0.001 42.083 Q 0.001 34.028 3.057 26.979 Q 6.112 19.931 11.564 14.618 Q 17.015 9.306 24.237 6.319 Q 31.459 3.333 39.793 3.333 Q 47.709 3.333 54.55 6.042 Q 61.39 8.75 66.529 13.576 Q 71.668 18.403 74.584 24.861 Q 77.501 31.319 77.501 38.819 Q 77.501 44.375 76.077 48.542 Q 74.654 52.708 72.327 55.451 Q 70.001 58.194 67.223 59.583 Q 64.445 60.972 61.668 60.972 Q 58.126 60.972 55.279 59.063 Q 52.432 57.153 51.251 54.167 Q 48.682 57.222 44.966 59.097 Q 41.251 60.972 36.876 60.972 Q 32.987 60.972 29.619 59.479 Q 26.251 57.986 23.682 55.313 Q 21.112 52.639 19.654 49.132 Q 18.195 45.625 18.195 41.667 Q 18.195 37.708 19.654 34.201 Q 21.112 30.694 23.682 28.021 Q 26.251 25.347 29.619 23.854 Q 32.987 22.361 36.876 22.361 Q 40.765 22.361 44.133 23.785 Q 47.501 25.208 50.001 27.778 Z M 37.709 54.722 Q 41.251 54.722 44.133 52.951 Q 47.015 51.181 48.716 48.229 Q 50.418 45.278 50.418 41.667 Q 50.418 38.056 48.716 35.104 Q 47.015 32.153 44.133 30.382 Q 41.251 28.611 37.709 28.611 Q 34.168 28.611 31.286 30.382 Q 28.404 32.153 26.702 35.104 Q 25.001 38.056 25.001 41.667 Q 25.001 45.278 26.702 48.229 Q 28.404 51.181 31.286 52.951 Q 34.168 54.722 37.709 54.722 Z M 104.029 68.75 L 103.89 68.75 L 82.918 25 L 91.459 25 L 99.862 43.056 Q 101.043 45.625 102.119 48.056 Q 103.195 50.486 104.237 54.167 Q 105.348 50.556 106.494 48.056 Q 107.64 45.556 108.682 43.056 L 117.015 23.056 L 117.154 23.056 L 125.418 43.056 Q 126.459 45.625 127.57 48.056 Q 128.682 50.486 129.723 54.167 Q 130.765 50.486 131.876 48.021 Q 132.987 45.556 134.168 43.056 L 142.709 25 L 150.695 25 L 129.723 68.75 L 129.584 68.75 L 121.182 50.139 Q 120.07 47.639 118.994 45.174 Q 117.918 42.708 116.807 39.236 Q 115.765 42.708 114.654 45.174 Q 113.543 47.639 112.362 50.139 L 104.029 68.75 Z M 447.223 66.667 L 413.473 66.667 L 413.473 60.417 L 427.918 60.417 L 427.918 14.028 L 413.473 21.389 L 413.473 13.889 L 435.418 2.778 L 435.557 2.778 L 435.557 60.417 L 447.223 60.417 L 447.223 66.667 Z M 520.557 66.667 L 513.057 66.667 L 513.057 25 L 520.001 25 L 520.001 31.736 Q 522.293 28.056 525.939 26.111 Q 529.584 24.167 533.82 24.167 Q 538.265 24.167 542.05 26.354 Q 545.834 28.542 548.195 32.674 Q 550.557 36.806 550.557 42.708 L 550.557 66.667 L 543.057 66.667 L 543.057 43.75 Q 543.057 38.819 540.105 35.035 Q 537.154 31.25 531.807 31.25 Q 528.89 31.25 526.32 32.674 Q 523.751 34.097 522.154 36.806 Q 520.557 39.514 520.557 43.542 L 520.557 66.667 Z M 290.14 29.931 L 290.14 0 L 297.64 0 L 297.64 66.667 L 290.695 66.667 L 290.695 61.181 Q 287.918 63.958 284.133 65.59 Q 280.348 67.222 276.043 67.222 Q 271.737 67.222 267.987 65.556 Q 264.237 63.889 261.355 60.938 Q 258.473 57.986 256.876 54.132 Q 255.279 50.278 255.279 45.833 Q 255.279 41.389 256.876 37.535 Q 258.473 33.681 261.355 30.729 Q 264.237 27.778 267.987 26.111 Q 271.737 24.444 276.043 24.444 Q 280.14 24.444 283.751 25.903 Q 287.362 27.361 290.14 29.931 Z M 277.015 60.417 Q 280.973 60.417 284.202 58.438 Q 287.432 56.458 289.341 53.16 Q 291.251 49.861 291.251 45.833 Q 291.251 41.806 289.341 38.507 Q 287.432 35.208 284.202 33.229 Q 280.973 31.25 277.015 31.25 Q 273.057 31.25 269.827 33.229 Q 266.598 35.208 264.689 38.507 Q 262.779 41.806 262.779 45.833 Q 262.779 49.861 264.689 53.16 Q 266.598 56.458 269.827 58.438 Q 273.057 60.417 277.015 60.417 Z M 212.362 61.181 L 212.362 66.667 L 205.418 66.667 L 205.418 0 L 212.918 0 L 212.918 29.931 Q 215.695 27.361 219.307 25.903 Q 222.918 24.444 227.015 24.444 Q 231.32 24.444 235.07 26.111 Q 238.82 27.778 241.702 30.729 Q 244.584 33.681 246.182 37.535 Q 247.779 41.389 247.779 45.833 Q 247.779 50.278 246.182 54.132 Q 244.584 57.986 241.702 60.938 Q 238.82 63.889 235.07 65.556 Q 231.32 67.222 227.015 67.222 Q 222.709 67.222 218.959 65.59 Q 215.209 63.958 212.362 61.181 Z M 226.043 60.417 Q 230.001 60.417 233.23 58.438 Q 236.459 56.458 238.369 53.16 Q 240.279 49.861 240.279 45.833 Q 240.279 41.806 238.369 38.507 Q 236.459 35.208 233.23 33.229 Q 230.001 31.25 226.043 31.25 Q 222.084 31.25 218.855 33.229 Q 215.626 35.208 213.716 38.507 Q 211.807 41.806 211.807 45.833 Q 211.807 49.861 213.716 53.16 Q 215.626 56.458 218.855 58.438 Q 222.084 60.417 226.043 60.417 Z M 195.418 44.861 L 195.418 47.917 L 168.195 47.917 Q 166.39 47.917 164.515 47.778 Q 162.64 47.639 160.834 47.361 Q 161.32 51.042 163.439 54.028 Q 165.557 57.014 168.82 58.715 Q 172.084 60.417 176.043 60.417 Q 180.001 60.417 183.404 58.611 Q 186.807 56.806 188.89 53.819 L 190.973 62.361 Q 187.987 64.792 184.133 66.146 Q 180.279 67.5 175.973 67.5 Q 171.043 67.5 166.876 65.799 Q 162.709 64.097 159.654 61.111 Q 156.598 58.125 154.897 54.097 Q 153.195 50.069 153.195 45.417 Q 153.195 40.972 154.827 37.118 Q 156.459 33.264 159.376 30.347 Q 162.293 27.431 166.147 25.799 Q 170.001 24.167 174.376 24.167 Q 180.14 24.167 184.932 26.91 Q 189.723 29.653 192.57 34.306 Q 195.418 38.958 195.418 44.861 Z M 168.195 41.667 L 182.015 41.667 Q 183.543 41.667 185.036 41.771 Q 186.529 41.875 188.057 42.014 Q 187.432 38.75 185.418 36.25 Q 183.404 33.75 180.557 32.292 Q 177.709 30.833 174.376 30.833 Q 170.973 30.833 168.091 32.396 Q 165.209 33.958 163.265 36.528 Q 161.32 39.097 160.626 42.292 Q 162.501 41.944 164.411 41.806 Q 166.32 41.667 168.195 41.667 Z M 480.348 67.5 Q 475.904 67.5 471.98 65.903 Q 468.057 64.306 465.07 61.389 Q 462.084 58.472 460.383 54.618 Q 458.682 50.764 458.682 46.319 Q 458.682 42.222 460.14 38.646 Q 461.598 35.069 464.168 32.292 Q 466.737 29.514 470.07 27.778 Q 468.057 25.833 466.876 23.333 Q 465.695 20.833 465.695 17.708 Q 465.695 14.653 466.841 12.049 Q 467.987 9.444 470.001 7.465 Q 472.015 5.486 474.689 4.41 Q 477.362 3.333 480.348 3.333 Q 483.404 3.333 486.043 4.41 Q 488.682 5.486 490.695 7.465 Q 492.709 9.444 493.855 12.049 Q 495.001 14.653 495.001 17.708 Q 495.001 20.833 493.82 23.368 Q 492.64 25.903 490.626 27.778 Q 494.029 29.514 496.564 32.292 Q 499.098 35.069 500.557 38.646 Q 502.015 42.222 502.015 46.319 Q 502.015 50.764 500.314 54.618 Q 498.612 58.472 495.626 61.389 Q 492.64 64.306 488.716 65.903 Q 484.793 67.5 480.348 67.5 Z M 480.348 60.417 Q 484.307 60.417 487.536 58.507 Q 490.765 56.597 492.64 53.403 Q 494.515 50.208 494.515 46.25 Q 494.515 42.292 492.64 39.063 Q 490.765 35.833 487.536 33.958 Q 484.307 32.083 480.348 32.083 Q 476.39 32.083 473.195 33.958 Q 470.001 35.833 468.091 39.063 Q 466.182 42.292 466.182 46.25 Q 466.182 50.208 468.091 53.403 Q 470.001 56.597 473.195 58.507 Q 476.39 60.417 480.348 60.417 Z M 480.348 25.972 Q 482.57 25.972 484.376 24.896 Q 486.182 23.819 487.258 22.014 Q 488.334 20.208 488.334 17.986 Q 488.334 15.764 487.258 13.958 Q 486.182 12.153 484.376 11.076 Q 482.57 10 480.348 10 Q 478.126 10 476.32 11.076 Q 474.515 12.153 473.439 13.958 Q 472.362 15.764 472.362 17.986 Q 472.362 20.208 473.439 22.014 Q 474.515 23.819 476.32 24.896 Q 478.126 25.972 480.348 25.972 Z M 355.07 79.167 L 347.987 79.167 L 374.376 0 L 381.459 0 L 355.07 79.167 Z M 318.473 66.667 L 310.973 66.667 L 310.973 0 L 318.473 0 L 318.473 66.667 Z M 347.64 66.667 L 338.126 66.667 L 319.307 43.75 L 334.793 25 L 343.473 25 L 328.265 43.194 L 347.64 66.667 Z M 395.557 66.667 L 388.057 66.667 L 388.057 25 L 395.557 25 L 395.557 66.667 Z M 391.807 17.5 Q 390.418 17.5 389.272 16.84 Q 388.126 16.181 387.466 15.035 Q 386.807 13.889 386.807 12.5 Q 386.807 11.042 387.466 9.931 Q 388.126 8.819 389.272 8.16 Q 390.418 7.5 391.807 7.5 Q 393.265 7.5 394.376 8.16 Q 395.487 8.819 396.147 9.931 Q 396.807 11.042 396.807 12.5 Q 396.807 13.889 396.147 15.035 Q 395.487 16.181 394.376 16.84 Q 393.265 17.5 391.807 17.5 Z"/></g></svg>